<svg viewBox="0 0 477.389 477.389">
  <defs/>
  <path d="M451.209 68.647c-16.787-16.799-39.564-26.234-63.312-26.226-23.739-.056-46.516 9.376-63.266 26.197L209.056 184.194c-22.867 22.903-31.609 56.356-22.869 87.518 2.559 9.072 11.988 14.352 21.06 11.793 9.072-2.559 14.352-11.988 11.793-21.06-5.388-19.271.018-39.95 14.148-54.118L348.763 92.768c21.608-21.613 56.646-21.617 78.259-.008 21.613 21.608 21.617 56.646.009 78.259L311.456 286.594a55.1594 55.1594 0 01-27.682 15.002c-9.228 1.921-15.151 10.959-13.23 20.187 1.652 7.935 8.657 13.613 16.762 13.588 1.193.001 2.383-.125 3.55-.375a89.2051 89.2051 0 0044.732-24.269l115.576-115.558c34.95-34.926 34.97-91.571.045-126.522z"/>
  <path d="M290.702 206.142c-2.559-9.072-11.988-14.352-21.06-11.793s-14.352 11.988-11.793 21.06c5.388 19.271-.018 39.95-14.148 54.118L128.125 385.103c-21.608 21.613-56.646 21.617-78.259.008-21.613-21.608-21.617-56.646-.009-78.259l115.576-115.593a55.0831 55.0831 0 0127.648-15.002c9.243-1.849 15.237-10.84 13.388-20.082s-10.84-15.237-20.082-13.388c-.113.023-.225.046-.337.071a89.3422 89.3422 0 00-44.749 24.269L25.725 282.703c-34.676 35.211-34.242 91.865.969 126.541 34.827 34.297 90.731 34.301 125.563.008l115.575-115.593c22.868-22.903 31.61-56.356 22.87-87.517z"/>
</svg>