<svg viewBox="0 0 424.449 424.449">
  <defs/>
  <circle cx="170.241" cy="374.273" r="50.176"/>
  <path d="M316.673 324.098c-27.711 0-50.176 22.465-50.176 50.176s22.465 50.176 50.176 50.176c27.711 0 50.176-22.465 50.176-50.176s-22.465-50.176-50.176-50.176zM402.177 272.897H140.545l-5.12-29.696h215.04c6.326.019 12.017-3.843 14.336-9.728l51.2-129.024c3.111-7.892-.766-16.812-8.658-19.922a15.3487 15.3487 0 00-5.678-1.07H108.801L96.513 12.801C95.251 5.33 88.729-.105 81.153.001h-58.88c-8.483 0-15.36 6.877-15.36 15.36s6.877 15.36 15.36 15.36h46.08l44.032 260.096c1.262 7.471 7.784 12.906 15.36 12.8h274.432c8.483 0 15.36-6.877 15.36-15.36s-6.877-15.36-15.36-15.36z"/>
</svg>